<?xml version="1.0" encoding="utf-8"?>
<!-- Generator: Adobe Illustrator 24.2.3, SVG Export Plug-In . SVG Version: 6.00 Build 0)  -->
<svg version="1.1" id="Capa_1" xmlns="http://www.w3.org/2000/svg" xmlns:xlink="http://www.w3.org/1999/xlink" x="0px" y="0px"
	 viewBox="0 0 1366 539.25" style="enable-background:new 0 0 1366 539.25;" xml:space="preserve">
<style type="text/css">
	.st0{fill:#92A519;}
	.st1{fill:none;stroke:#101010;stroke-width:4.5383;stroke-miterlimit:1.8779;}
	.st2{fill:#FBEB04;}
</style>
<g>
	<g transform="translate(539.392899, 158.590101)">
		<g>
			<path class="st0" d="M-506.68,115.03c0,22.95-0.79,29.41-5.23,36.23c-6.85,10.88-6.85,11.28-6.85,17.32
				c0,9.66,6.44,16.51,15.7,16.51c3.22,0,9.66-0.4,16.51-1.2c9.66-0.81,25.38-1.62,32.61-1.62c4.43,0,10.88,0.4,19.73,0.81
				c47.92,2.82,64.02,3.63,76.5,3.63c35.42,0,68.03-4.03,86.16-10.88c37.03-13.69,60.38-46.7,60.38-84.94
				c0-26.57-13.29-50.33-33.4-60.39c-12.9-6.44-12.9-6.44-12.9-8.85c0-1.62,0.81-2.41,3.63-3.63c21.75-8.45,35.83-32.2,35.83-59.18
				c0-30.6-16.1-58.78-41.46-74.07c-22.95-13.29-48.71-18.93-85.75-18.93c-8.04,0-21.73,0.4-38.64,0.81
				c-55.96,2.02-55.96,2.02-63.61,2.02c-12.88,0-18.11-0.4-35.83-2.02c-6.85-0.4-13.29-0.81-18.11-0.81
				c-10.88,0-17.32,6.05-17.32,16.51c0,6.44,0,6.85,6.85,17.72c4.43,6.85,5.23,13.29,5.23,36.23V115.03z M-387.92-42.38
				c0-12.88,3.63-15.29,21.35-15.29c23.74,0,35.42,8.46,35.42,26.17c0,17.72-12.07,27.38-33.82,27.38
				c-21.33,0-22.95-1.21-22.95-15.31V-42.38z M-387.92,62.31c0-12.9,3.22-15.71,19.32-15.71c27.38,0,40.26,8.87,40.26,28.19
				c0,18.11-12.07,28.17-33.82,28.17c-22.95,0-25.76-1.6-25.76-14.89V62.31z"/>
		</g>
	</g>
</g>
<g>
	<g transform="translate(612.581647, 158.590101)">
		<g>
			<path class="st0" d="M-98.38-140.21c-45.08,0-84.13,12.48-113.12,35.83C-245.32-77-266.26-26.67-266.26,28.08
				c0,99.44,64.83,163.04,166.28,163.04C4.28,191.12,67.9,127.93,67.9,24.05c0-52.33-17.72-97.01-49.13-124.8
				C-9.81-124.9-54.09-140.21-98.38-140.21z M-99.98-39.95c22.54,0,34.21,21.73,34.21,64.41c0,41.07-12.07,63.21-33.8,63.21
				c-22.56,0-33.01-20.54-33.01-64.02C-132.59-19.03-122.14-39.95-99.98-39.95z"/>
		</g>
	</g>
</g>
<g>
	<g transform="translate(690.685393, 158.590101)">
		<g>
			<path class="st0" d="M150.82-63.71l0.4-10.88v-10.47c0.39-6.04,1.6-10.05,4.82-14.89c6.85-11.28,6.85-11.28,6.85-17.72
				c0-9.66-6.44-16.51-16.1-16.51c-4.03,0-9.66,0.4-16.1,0.81c-12.88,1.62-26.17,2.02-44.29,2.02c-16.1,0-23.35-0.4-39.45-2.02
				c-6.85-0.4-13.69-0.81-18.11-0.81c-10.88,0-17.32,6.05-17.32,16.91c0,6.04,0,6.44,6.85,17.32c4.43,6.85,5.23,13.29,5.23,36.23
				v178.74c0,22.95-0.79,29.41-5.23,36.23c-6.44,10.47-6.85,11.28-6.85,16.91c0,10.07,6.44,16.51,16.51,16.51
				c3.63,0,9.26-0.4,15.7-0.79c10.47-0.81,29.39-1.62,42.27-1.62c49.11,0,77.31,0.4,91,2.01c6.44,0.4,13.29,0.81,16.1,0.81
				c11.26,0,15.7-4.43,17.7-17.32c4.03-24.55,9.66-47.09,16.1-67.63c2.02-4.84,2.83-9.26,2.83-12.88c0-7.65-6.85-13.69-15.71-13.69
				c-5.23,0-6.85,0.4-14.08,4.84c-8.06,5.23-15.31,6.85-28.98,6.85c-19.34,0-20.13-1.21-20.13-25.78V-63.71z"/>
		</g>
	</g>
</g>
<g>
	<g transform="translate(741.533247, 158.590101)">
		<g>
			<path class="st0" d="M202.21,115.03c0,22.95-0.79,29.41-5.23,36.23c-6.44,10.47-6.85,11.28-6.85,16.91
				c0,10.07,6.44,16.51,16.1,16.51c3.22,0,9.26-0.4,16.1-0.79c10.07-0.81,26.57-1.62,37.04-1.62c7.65,0,29.39,0.81,51.53,1.62
				c10.47,0.39,18.53,0.79,22.95,0.79c31.8,0,62.4-6.44,88.16-18.51c52.74-24.95,81.34-74.88,81.34-142.52
				c0-63.19-28.19-114.33-76.09-137.28c-27.38-13.29-60.8-20.54-97.44-20.54c-6.44,0-15.7,0.4-28.17,1.21
				c-22.54,1.21-31.39,1.62-41.07,1.62c-10.45,0-16.89-0.4-35.02-2.02c-6.85-0.4-13.29-0.81-18.11-0.81
				c-10.88,0-17.32,6.05-17.32,16.51c0,6.44,0,6.85,6.85,17.72c4.43,6.85,5.23,13.29,5.23,36.23V115.03z M322.19-15.4
				c0-15.29,2.82-18.51,16.51-18.51c27.77,0,43.08,20.13,43.08,56.77c0,35.42-15.71,55.96-42.67,55.96
				c-14.5,0-16.91-2.02-16.91-14.5V-15.4z"/>
		</g>
	</g>
</g>
<path class="st1" d="M244.34,394.13c7.58-0.46,11.53,1.9,11.84,7.09c0.16,2.78-0.37,4.87-1.58,6.25c-1.21,1.37-3.71,5.84-7.51,13.43
	c-3.78,7.58-7.9,17.23-12.34,28.95c-4.43,11.72-7.16,21.66-8.17,29.83c-0.23,1.02-0.3,2.43-0.19,4.22c0.33,5.47,1.99,8.13,4.98,7.94
	c2.99-0.18,6.44-1.81,10.36-4.91c3.91-3.08,7.36-6.34,10.35-9.77c2.99-3.43,5.91-6.93,8.75-10.51s4.52-5.63,5.1-6.16
	c0.56-0.55,1.44-0.84,2.64-0.92c1.88-0.12,3.13,1.25,3.7,4.12c0.58,2.87,0.95,5.84,1.14,8.94c0.19,3.08,0.02,5.24-0.51,6.48
	c-2.53,5.86-8.48,13.07-17.81,21.64c-9.33,8.55-18,13.09-26.03,13.57c-8.02,0.49-14.08-1.58-18.16-6.25
	c-4.08-4.65-6.3-9.94-6.65-15.87c-0.37-5.93,0.32-11.19,2.04-15.78c-7.62,11.26-16.56,20.94-26.82,29.07
	c-10.26,8.13-18.78,12.39-25.55,12.81c-6.78,0.4-12.42-1.3-16.96-5.12c-5.79-4.75-8.96-11.63-9.5-20.66
	c-0.55-9.01,0.92-18.2,4.4-27.56c3.48-9.36,8.29-18.02,14.39-25.94c6.12-7.92,12.93-15.2,20.43-21.86
	c15.75-13.97,30.6-21.36,44.56-22.23c5.38-0.32,9.82,0.32,13.32,1.9c3.48,1.58,5.77,3.7,6.83,6.34c2.18-3.73,4.07-6.12,5.65-7.16
	C238.62,394.95,241.05,394.34,244.34,394.13z M225.48,411.93c-17.03,1.04-34.1,11.56-51.19,31.61
	c-6.05,7.18-11.53,15.66-16.38,25.45c-4.86,9.8-7.18,16.44-6.97,19.94c0.23,3.48,1.32,5.16,3.31,5.05
	c2.8-0.18,10.24-6.16,22.31-17.93c12.09-11.79,20.06-20.41,23.93-25.83C204.73,444.14,213.06,431.38,225.48,411.93z M338.47,479.31
	c0.28,4.4,3.4,6.41,9.38,6.04c3.19-0.19,7.09-2.02,11.74-5.51c4.65-3.48,8.78-7.23,12.44-11.26c9.73-10.89,15.31-16.38,16.7-16.45
	c2.59-0.16,4.12,3.48,4.58,10.96c0.44,7.48-1.58,12.74-6.09,15.82c-13.48,13.73-24,22.21-31.62,25.48
	c-4.28,1.76-9.08,2.75-14.36,2.97c-5.3,0.21-10.66-1.76-16.12-5.93c-5.46-4.17-8.38-9.47-8.76-15.89
	c-0.39-6.42,0.86-13.83,3.75-22.21c2.9-8.38,5.93-15.59,9.12-21.63c3.19-6.05,7.13-13.09,11.84-21.12
	c4.72-8.04,7.16-13.02,7.34-14.92l-0.32-0.28c-3.26,0.49-11.02,7.46-23.25,20.91c-12.23,13.44-22.3,25.11-30.2,34.98
	c-7.9,9.89-17.26,23-28.07,39.37c-3.03,4.49-5.6,6.79-7.69,6.92c-2.08,0.12-4.94-0.37-8.55-1.5c-3.63-1.14-5.86-1.97-6.69-2.53
	c-0.83-0.55-1.28-1.41-1.36-2.6c-0.07-1.2,0.18-2.69,0.77-4.47c0.6-1.79,1.18-3.27,1.76-4.47c0.58-1.18,1.53-3.01,2.89-5.49
	s4.01-7.73,7.97-15.71c3.96-7.99,10.07-19.94,18.3-35.85c8.24-15.89,13.15-25.5,14.75-28.79c3.4-6.81,6.19-11.79,8.39-14.92
	c4.15-5.95,11.54-9.24,22.21-9.89c2.39-0.16,3.68,1.27,3.85,4.26c0.28,4.68-3.5,13.76-11.39,27.24l-5.72,9.8
	c16.08-20.18,29.9-33.17,41.44-38.96c5.63-2.85,10.77-4.42,15.4-4.7s8.39,0.74,11.28,3.06c2.9,2.34,4.43,5.02,4.61,8.06
	c0.19,3.03-0.63,6.74-2.46,11.1c-1.85,4.35-3.73,8.27-5.67,11.74s-4.5,7.85-7.67,13.15c-3.19,5.3-4.91,8.17-5.17,8.64
	c-0.28,0.46-0.99,1.71-2.11,3.73c-1.13,2.01-1.95,3.48-2.5,4.42c-0.55,0.93-1.44,2.57-2.71,4.89c-1.25,2.32-2.27,4.26-3.03,5.81
	c-0.74,1.55-1.69,3.45-2.8,5.72s-1.99,4.22-2.64,5.86c-0.65,1.65-1.32,3.43-2.01,5.38C338.86,474.11,338.33,477.03,338.47,479.31z
	 M555.54,264.36c1.9-0.11,3.43,0.4,4.59,1.53c1.18,1.13,1.79,2.31,1.87,3.55c0.09,1.25-0.76,3.61-2.5,7.06
	c-1.72,3.45-5.75,11-12.04,22.63c-6.3,11.63-11.19,20.77-14.69,27.38c-20.38,38.13-36.23,70.3-47.55,96.49
	c-11.32,26.19-16.81,41.93-16.49,47.21l0.09,1.2c0.25,4.08,1.87,6.04,4.86,5.84c2.97-0.18,6.51-1.79,10.58-4.84
	c4.07-3.04,7.6-6.26,10.59-9.64s6-6.88,9.03-10.52c3.03-3.64,4.87-5.77,5.54-6.41c0.65-0.65,1.53-1,2.64-1.07
	c1.69-0.09,2.85,0.92,3.48,3.03c0.62,2.11,1.06,5.09,1.28,8.92c0.23,3.84,0.09,6.37-0.44,7.6c-2.55,5.75-8.48,12.93-17.81,21.56
	c-9.33,8.62-18.39,13.18-27.15,13.73c-14.94,0.9-22.81-4.96-23.56-17.63c-0.49-7.87,1.88-18.35,7.07-31.48
	c-7.43,10.96-15.12,20.38-23.04,28.26c-14.71,14.5-27.8,22.08-39.26,22.79c-6.39,0.39-11.23-1.57-14.54-5.88
	c-3.31-4.29-5.23-10.65-5.74-19.08c-0.51-8.41,2.16-18.71,8.02-30.87c5.86-12.16,13.41-23.25,22.67-33.26
	c9.24-10.01,19.64-18.53,31.22-25.59c11.58-7.06,22.38-10.89,32.45-11.51c3.19-0.19,7.04,1.53,11.56,5.16
	c2.62-4.77,7.39-14.25,14.32-28.47c21.91-42.64,36.53-68.72,43.85-78.27C540.32,268.04,546.67,264.91,555.54,264.36z M470.03,395.13
	c-14.17,4.07-27.1,11.54-38.84,22.45c-11.74,10.91-20.36,22.12-25.87,33.61c-5.51,11.47-8.15,18.86-7.95,22.16
	c0.19,3.29,1,4.89,2.39,4.8c5.98-0.37,19.96-14.62,41.95-42.76C452.68,421.52,462.11,408.12,470.03,395.13z M648.15,329.54
	c1.5-0.09,2.31,0.72,2.41,2.41c0.04,0.6-0.19,1.16-0.65,1.69c-7.87,8.89-17.28,13.66-28.24,14.32c-2.59,0.14-5.56-1.14-8.92-3.89
	c-3.38-2.75-5.23-6.92-5.56-12.49c-0.35-5.58,2.66-11.98,9.03-19.22c6.35-7.25,15.42-14.29,27.14-21.15
	c11.74-6.86,26.54-13.23,44.38-19.13c17.84-5.88,33.98-9.26,48.43-10.14c14.45-0.88,26.38-0.44,35.79,1.36
	c9.4,1.78,16.82,4.22,22.28,7.34c5.44,3.11,9.98,6.72,13.62,10.8c6.12,6.83,9.4,13.95,9.85,21.38c0.46,7.41-1.48,15.2-5.79,23.37
	c-4.29,8.17-10.08,15.54-17.33,22.14c-7.25,6.58-15.64,12.83-25.18,18.71c-17.84,10.88-37.13,19.25-57.88,25.11
	c3.8,3.47,11.97,12.25,24.48,26.34c12.51,14.1,23.86,25.83,34.09,35.21c10.22,9.38,17.97,13.9,23.25,13.59l4.84-2.09
	c1.09-0.07,1.65,0.32,1.71,1.16c0.05,0.86-1.62,3.41-5,7.65c-3.4,4.26-6.37,7.51-8.94,9.78c-2.57,2.25-6.16,3.52-10.79,3.8
	c-4.65,0.28-10.03-1.64-16.19-5.77c-6.14-4.12-12.95-10.07-20.43-17.81c-7.46-7.74-14.22-15.06-20.24-21.94
	c-6.02-6.9-12.92-15.03-20.68-24.41c-7.78-9.38-13.11-15.71-16.01-19.04c-0.9,1.65-3.2,5.75-6.9,12.34
	c-3.7,6.58-6.41,11.42-8.11,14.52c-1.72,3.11-4.19,7.64-7.43,13.59c-3.24,5.95-5.75,10.72-7.53,14.32
	c-4.93,9.61-8.31,16.77-10.17,21.47c-1.87,4.72-5.24,7.23-10.12,7.51l-5.24,0.18l-4.47,0.42c-6.18,0.37-9.43-2.02-9.75-7.21
	c-0.23-3.87,1.09-9.54,3.99-16.96c2.9-7.43,18.97-35.46,48.22-84.08c29.26-48.64,45.44-74.63,48.53-77.96
	c3.1-3.34,5.42-5.26,6.99-5.75c1.14-0.97,1.92-1.46,2.32-1.5l2.71,0.28l2.52-0.6c0.9-0.05,1.72,0.28,2.46,0.99
	c0.74,0.7,1.27,1.14,1.58,1.32c4.36,2.83,6.62,5.3,6.74,7.39c0.12,2.09-0.26,4.15-1.2,6.16c-0.93,2.01-3.54,6.53-7.8,13.59
	c-4.28,7.07-9.89,16.24-16.86,27.5c-6.97,11.28-12,19.46-15.08,24.55c8.13-0.9,17.81-3.98,28.98-9.26
	c11.17-5.28,21.57-11.44,31.2-18.48c9.63-7.04,17.77-14.54,24.44-22.49s9.84-14.73,9.49-20.31c-0.18-2.99-1.88-5.6-5.12-7.87
	c-3.24-2.25-7.23-3.92-12-5.03c-9.54-2.23-20.18-2.97-31.94-2.27c-11.77,0.72-26.5,4.17-44.24,10.35
	c-17.72,6.18-30.58,11.83-38.57,16.96c-7.99,5.14-13.73,9.43-17.21,12.9s-5.19,5.84-5.12,7.13c0.04,0.7,1.09,0.99,3.13,0.86
	c2.04-0.12,3.82-0.76,5.35-1.9C646.94,330.14,647.85,329.56,648.15,329.54z M891.47,356.62c0.4,6.58-1.92,12.51-6.93,17.83
	c-5.03,5.3-10.95,8.17-17.72,8.57c-2.18,0.14-3.66-0.3-4.42-1.3c-0.77-1-1.2-2.36-1.3-4.05c-0.11-1.69,0-3.36,0.3-4.98
	c-3.52,1.43-7.39,3.5-11.61,6.26c-4.24,2.76-9.4,6.78-15.49,12.04c-6.07,5.28-9.05,9.1-8.89,11.49c0.04,0.81,1.23,1.13,3.57,0.99
	c2.34-0.14,5.91-1.18,10.7-3.11c4.77-1.95,8.13-2.97,10.08-3.1c1.94-0.12,3.22-0.09,3.82,0.07c1.34,0.62,2.83,2.06,4.47,4.31
	c1.64,2.23,2.5,4.05,2.59,5.38c0.07,1.34-1.11,3.19-3.57,5.54c-2.46,2.34-5.3,4.19-8.52,5.54c-3.22,1.34-5.35,2.36-6.42,3.01
	c-20.31,13.04-30.32,21.75-30.06,26.13c0.48,7.78,7.34,11.26,20.59,10.45c8.46-0.51,16.82-3.73,25.06-9.63
	c7-5.02,13.27-10.08,18.81-15.17c5.54-5.09,9.05-8.22,10.52-9.41c1.48-1.2,2.62-1.81,3.41-1.85c2.59-0.16,4.07,2.64,4.42,8.43
	c0.35,5.77,0.23,9.61-0.35,11.49c-0.58,1.88-2.45,4.28-5.56,7.16c-20.27,18.64-39.93,28.53-58.95,29.69
	c-10.17,0.62-18.37-0.28-24.62-2.71c-11.47-4.4-17.53-11.83-18.16-22.3c-0.83-13.74,8.04-24.74,26.64-32.98
	c-3.89-1.46-6.46-3.48-7.71-6.05c-1.27-2.57-2.06-6.78-2.41-12.6c-0.37-5.82,1.97-12.18,7-19.02c5.05-6.86,11.37-12.62,18.99-17.28
	c16.96-10.54,32.31-16.22,46.07-17.05c3.29-0.21,6.67,0.39,10.15,1.78C889.47,351.59,891.3,353.74,891.47,356.62z M983.72,270.01
	l6.23,1.13c0.9-0.05,1.71,0.33,2.46,1.2s1.16,1.67,1.2,2.48c0.05,0.79-0.86,2.99-2.75,6.62c-1.88,3.61-4.1,7.73-6.67,12.34
	c-2.57,4.59-3.94,7.11-4.12,7.51c7.73-1.07,13.22-1.71,16.45-1.9c3.24-0.19,5.47-0.11,6.69,0.28c1.23,0.37,2.67,1.53,4.35,3.48
	c1.67,1.94,3.19,3.4,4.54,4.36c1.35,0.97,2.09,2.5,2.23,4.59c0.12,2.09-1.04,3.94-3.5,5.54c-2.45,1.6-5.1,2.64-7.97,3.11
	c-22.98,3.7-35.67,5.67-38.05,5.9c-7.32,12.85-17.44,32.8-30.36,59.83c-12.9,27.03-19.6,43.87-20.11,50.5
	c-0.21,3.01-0.26,5.46-0.14,7.36c0.23,3.89,2.39,5.7,6.48,5.46s8.53-2.09,13.32-5.53c4.79-3.45,9.17-7.14,13.13-11.09
	c10.56-10.63,16.22-15.98,17.02-16.03c2.6-0.16,4.17,4.26,4.72,13.22c0.3,4.89-1.69,9.4-5.93,13.57
	c-9.54,9.27-17.62,16.31-24.21,21.12c-6.62,4.8-13.36,7.41-20.24,7.83c-1.5,0.09-2.89,0.04-4.21-0.19c-8.06-1-14.1-3.57-18.09-7.67
	c-4.01-4.12-6.21-9.85-6.6-17.23c-0.4-7.37,1.25-16.45,4.94-27.22c3.7-10.79,8.46-22.3,14.32-34.56
	c9.59-19.97,19.25-38.77,28.98-56.36l-5.63,1.09c-11.49,2.01-18.18,3.06-20.06,3.17l-1.36,0.09c-2.89,0.18-5.7-0.23-8.46-1.21
	c-2.76-0.99-4.19-2.32-4.29-4.01c-0.11-1.69,0.51-3.38,1.87-5.07c1.35-1.67,2.15-2.97,2.39-3.89c0.56-2.23,3.03-4.84,7.39-7.8
	c4.38-2.97,7.71-4.59,9.98-4.89c2.29-0.28,4.5-0.55,6.63-0.77c2.13-0.23,4.52-0.48,7.16-0.74c2.62-0.25,4.65-0.48,6.04-0.65
	l13.41-1.43c7.6-13.06,12.86-21.49,15.78-25.25c2.92-3.78,4.63-5.86,5.1-6.25c0.48-0.37,1.46-0.62,2.96-0.7L983.72,270.01z
	 M1002.27,380.35c21.91-28.14,41.13-42.71,57.67-43.71c4.08-0.25,7.51,0.77,10.31,3.04c2.78,2.29,4.29,5.37,4.52,9.26
	c0.25,3.89-2.13,10.56-7.11,20.01c-4.96,9.45-9.61,17.46-13.92,24.02c-2.29,3.34-5.02,5.1-8.15,5.3c-3.13,0.19-5.65-0.81-7.53-2.99
	c-1.88-2.18-2.92-4.82-3.1-7.9c-0.42-6.88,2.78-14.89,9.64-24l-0.32-0.28c-3.27,0.51-11.03,7.48-23.26,20.92
	c-12.23,13.44-22.61,25.45-31.11,36.02c-8.52,10.56-17.67,23.35-27.45,38.34c-2.83,4.47-5.31,6.78-7.46,6.9
	c-2.13,0.12-5.02-0.37-8.64-1.5c-3.61-1.13-5.82-1.97-6.6-2.53c-0.79-0.55-1.21-1.51-1.3-2.92c-0.09-1.39,0.21-3.03,0.9-4.93
	c0.69-1.88,1.99-4.59,3.94-8.11c1.94-3.52,4.84-9.19,8.71-17.03c3.87-7.83,9.92-19.69,18.16-35.6c8.24-15.91,13.15-25.5,14.75-28.81
	c3.4-6.79,6.19-11.77,8.39-14.91c4.15-5.95,11.54-9.26,22.21-9.91c2.39-0.14,3.68,1.28,3.85,4.28c0.28,4.68-3.5,13.76-11.39,27.24
	L1002.27,380.35z M1159.78,338.22c2.99-0.18,6.14,0.99,9.43,3.48c3.31,2.5,5.12,6.51,5.46,12.04c0.33,5.54-1.16,12.83-4.52,21.87
	c-3.34,9.06-8.13,18.35-14.36,27.89c-6.21,9.52-13.15,18.55-20.78,27.06c-7.62,8.5-16,15.61-25.09,21.31
	c-9.12,5.72-17.49,8.8-25.16,9.26c-7.67,0.48-13.97-1.57-18.9-6.12c-4.93-4.54-7.65-11.14-8.18-19.74
	c-0.53-8.62,1.02-18.3,4.61-29.02c3.61-10.72,8.5-20.29,14.69-28.72c6.18-8.43,12.97-16.07,20.36-22.91
	c15.43-14.04,29.3-21.43,41.55-22.17c5.49-0.33,9.7,0.76,12.65,3.27c1.06,0.84,1.6,1.6,1.64,2.31l0.05,0.9
	C1154.61,338.64,1156.79,338.41,1159.78,338.22z M1145.9,359.02l-1.06,0.07c-3.48,0.21-5.38-2.23-5.68-7.3
	c-7.13,2.83-14.5,7.48-22.1,13.94c-7.62,6.46-14.31,13.97-20.1,22.52c-11.76,17.1-17.4,31.31-16.91,42.59
	c0.33,5.58,2.55,8.24,6.63,7.99c4.08-0.25,10-3.31,17.74-9.19c7.76-5.86,15.27-14.03,22.6-24.46c7.32-10.45,12.72-19.46,16.21-27.01
	c3.5-7.57,5.16-12.67,5-15.31S1147.29,358.93,1145.9,359.02z M1323.56,216.51l11.6,0.79c2.48-0.14,3.78,0.58,3.87,2.16
	c0.02,0.3-0.14,0.97-0.48,1.99c-28.14,47.21-59.27,102.65-93.41,166.33c-1.88,3.63-3.8,5.79-5.75,6.51c-0.11,0-0.19,0.05-0.28,0.16
	c-0.11,0.11-0.26,0.25-0.51,0.4c-0.23,0.16-0.55,0.32-0.95,0.44c-1.46,0.69-3.19,1.09-5.17,1.21c-1.99,0.12-3.36,0.49-4.14,1.14
	c-0.76,0.65-2.29,1.04-4.58,1.18c-3.68,0.23-5.65-1.55-5.88-5.35c-0.4-6.67,7.11-24.25,22.52-52.74
	c15.43-28.49,30.64-55.01,45.65-79.58c15.01-24.57,24.69-38.78,29.07-42.66C1316.37,217.45,1319.16,216.78,1323.56,216.51z
	 M1190.49,451.04c-0.39-6.32,1.9-12.21,6.88-17.67c4.96-5.44,10.36-8.34,16.19-8.71c5.82-0.35,8.92,2.36,9.27,8.15
	c0.35,5.77-1.97,11.67-6.95,17.67c-5,6-10.36,9.19-16.15,9.54C1193.96,460.36,1190.88,457.37,1190.49,451.04z"/>
<g>
	<g transform="translate(566.071164, 197.293334)">
		<g>
			<path class="st2" d="M-321.71,196.85c7.55-0.46,11.49,1.9,11.83,7.11c0.14,2.78-0.39,4.86-1.55,6.26
				c-1.18,1.37-3.66,5.82-7.46,13.37c-3.8,7.57-7.94,17.21-12.39,28.93c-4.47,11.74-7.18,21.68-8.17,29.85
				c-0.28,1.04-0.39,2.45-0.28,4.22c0.32,5.46,1.99,8.08,5,7.88c2.99-0.18,6.44-1.79,10.35-4.86c3.94-3.1,7.41-6.35,10.42-9.78
				c3.04-3.41,5.95-6.92,8.73-10.49c2.82-3.61,4.5-5.67,5.07-6.19c0.6-0.51,1.5-0.81,2.67-0.92c1.92-0.09,3.17,1.3,3.73,4.15
				c0.56,2.87,0.93,5.84,1.13,8.94c0.18,3.1,0.02,5.26-0.49,6.48c-2.59,5.82-8.55,13.02-17.88,21.61
				c-9.34,8.59-18.02,13.13-26.04,13.59c-7.99,0.48-14.01-1.62-18.09-6.26c-4.08-4.65-6.32-9.92-6.69-15.84
				c-0.33-5.91,0.37-11.16,2.11-15.77c-7.65,11.23-16.61,20.91-26.89,29.07c-10.24,8.13-18.76,12.39-25.55,12.81
				c-6.76,0.42-12.39-1.3-16.89-5.14c-5.82-4.79-8.99-11.68-9.5-20.69c-0.56-9.01,0.88-18.18,4.36-27.52
				c3.47-9.33,8.25-17.97,14.36-25.9c6.14-7.92,12.97-15.2,20.48-21.82c15.71-14.03,30.57-21.47,44.56-22.31
				c5.35-0.32,9.78,0.32,13.3,1.9c3.52,1.6,5.79,3.71,6.83,6.34c2.15-3.7,4.03-6.07,5.63-7.11
				C-327.44,197.68-325,197.04-321.71,196.85z M-340.64,214.66c-17.03,1.04-34.07,11.58-51.1,31.61
				c-6.05,7.18-11.53,15.68-16.4,25.48c-4.89,9.77-7.23,16.4-7.04,19.92c0.23,3.48,1.34,5.14,3.31,5
				c2.82-0.14,10.28-6.09,22.38-17.88c12.11-11.83,20.08-20.43,23.93-25.83C-361.34,246.86-353.03,234.09-340.64,214.66z"/>
		</g>
	</g>
</g>
<g>
	<g transform="translate(593.740935, 195.612482)">
		<g>
			<path class="st2" d="M-255.27,283.73c0.28,4.36,3.4,6.37,9.36,5.98c3.19-0.18,7.11-2.01,11.76-5.49
				c4.68-3.47,8.83-7.21,12.46-11.26c9.71-10.88,15.27-16.37,16.68-16.47c2.57-0.14,4.1,3.55,4.58,11.05
				c0.46,7.46-1.58,12.74-6.12,15.84c-13.43,13.66-23.93,22.14-31.53,25.41c-4.36,1.74-9.19,2.73-14.43,2.96
				c-5.26,0.25-10.63-1.72-16.12-5.91c-5.46-4.17-8.38-9.47-8.8-15.91c-0.39-6.42,0.88-13.83,3.8-22.24
				c2.9-8.39,5.95-15.59,9.15-21.61c3.19-6.05,7.13-13.09,11.83-21.12c4.68-8.02,7.13-12.99,7.32-14.92l-0.35-0.21
				c-3.29,0.48-11.05,7.44-23.3,20.91c-12.21,13.43-22.28,25.09-30.2,34.98c-7.88,9.85-17.21,22.98-27.94,39.35
				c-3.06,4.47-5.63,6.76-7.74,6.9c-2.08,0.09-4.91-0.42-8.52-1.55c-3.61-1.13-5.84-1.97-6.69-2.53c-0.84-0.56-1.28-1.43-1.34-2.6
				c-0.09-1.21,0.18-2.69,0.77-4.43c0.56-1.78,1.16-3.26,1.76-4.43c0.56-1.21,1.53-3.04,2.89-5.49c1.32-2.48,3.94-7.71,7.88-15.7
				c3.98-8.02,10.1-19.99,18.37-35.9c8.25-15.91,13.18-25.48,14.78-28.72c3.38-6.85,6.16-11.84,8.38-14.99
				c4.12-5.95,11.51-9.26,22.17-9.92c2.39-0.14,3.68,1.3,3.87,4.29c0.28,4.7-3.52,13.78-11.4,27.24l-5.7,9.85
				c16.08-20.22,29.88-33.22,41.39-39c5.63-2.9,10.77-4.5,15.42-4.79c4.65-0.28,8.41,0.76,11.33,3.1c2.9,2.36,4.43,5.05,4.58,8.09
				c0.18,3.06-0.63,6.76-2.46,11.12c-1.83,4.33-3.73,8.22-5.7,11.68c-1.94,3.48-4.49,7.87-7.67,13.16c-3.15,5.31-4.86,8.2-5.14,8.66
				c-0.28,0.48-0.99,1.72-2.11,3.73c-1.13,2.02-1.97,3.5-2.53,4.43c-0.53,0.95-1.41,2.59-2.67,4.93c-1.27,2.31-2.31,4.22-3.1,5.77
				c-0.76,1.55-1.67,3.45-2.75,5.7c-1.09,2.25-1.95,4.22-2.6,5.91c-0.67,1.65-1.32,3.43-1.97,5.35
				C-254.89,278.51-255.41,281.45-255.27,283.73z"/>
		</g>
	</g>
</g>
<g>
	<g transform="translate(620.282681, 194.000154)">
		<g>
			<path class="st2" d="M-64.69,70.36c1.87-0.09,3.4,0.42,4.58,1.55c1.16,1.13,1.78,2.32,1.83,3.59c0.09,1.23-0.74,3.57-2.46,7.04
				c-1.74,3.43-5.77,10.96-12.11,22.6c-6.3,11.65-11.17,20.77-14.64,27.38c-20.41,38.15-36.29,70.32-47.58,96.5
				c-11.32,26.19-16.81,41.92-16.47,47.16l0.07,1.2c0.23,4.08,1.83,6.05,4.79,5.91c2.99-0.18,6.55-1.79,10.63-4.86
				c4.08-3.04,7.62-6.26,10.63-9.64c2.99-3.41,6-6.93,9.01-10.56c3.04-3.61,4.89-5.74,5.56-6.41c0.65-0.65,1.55-1,2.67-1.06
				c1.69-0.09,2.83,0.92,3.45,3.03c0.6,2.08,1.02,5.03,1.27,8.87c0.23,3.85,0.09,6.41-0.42,7.67c-2.53,5.74-8.48,12.92-17.81,21.54
				c-9.34,8.59-18.42,13.16-27.24,13.73c-14.92,0.88-22.77-5-23.51-17.67c-0.48-7.83,1.9-18.32,7.11-31.46
				c-7.43,10.98-15.1,20.41-23.02,28.3c-14.75,14.5-27.86,22.07-39.35,22.74c-6.34,0.42-11.17-1.5-14.5-5.77
				c-3.34-4.31-5.26-10.66-5.77-19.08c-0.46-8.45,2.2-18.74,8.02-30.9c5.86-12.14,13.41-23.23,22.67-33.22
				c9.29-10.03,19.71-18.58,31.25-25.62c11.58-7.07,22.4-10.93,32.45-11.54c3.19-0.18,7.06,1.55,11.61,5.21
				c2.62-4.79,7.41-14.29,14.36-28.51c21.91-42.66,36.5-68.74,43.78-78.27C-79.94,74.02-73.55,70.89-64.69,70.36z M-150.21,201.15
				c-14.18,4.05-27.14,11.53-38.86,22.45c-11.74,10.95-20.38,22.16-25.9,33.65c-5.49,11.46-8.15,18.85-7.95,22.17
				c0.18,3.29,0.99,4.89,2.39,4.79c5.95-0.37,19.94-14.64,41.95-42.8C-167.6,227.58-158.15,214.15-150.21,201.15z"/>
		</g>
	</g>
</g>
<g>
	<g transform="translate(648.251048, 192.301164)">
	</g>
</g>
<g>
	<g transform="translate(662.351354, 191.444614)">
		<g>
			<path class="st2" d="M-14.16,138.06c1.5-0.09,2.29,0.7,2.39,2.39c0.04,0.62-0.19,1.2-0.7,1.76
				c-7.85,8.87-17.25,13.64-28.23,14.29c-2.59,0.14-5.56-1.14-8.94-3.87c-3.34-2.71-5.17-6.86-5.49-12.46
				c-0.33-5.58,2.67-11.98,9.01-19.22c6.34-7.27,15.36-14.32,27.1-21.19c11.72-6.9,26.5-13.27,44.35-19.15
				c17.88-5.86,34.03-9.24,48.5-10.14c14.45-0.88,26.36-0.44,35.76,1.34c9.43,1.74,16.86,4.19,22.31,7.32
				c5.44,3.15,9.96,6.76,13.59,10.84c6.14,6.86,9.43,13.99,9.85,21.4c0.46,7.43-1.46,15.24-5.77,23.44
				c-4.33,8.17-10.12,15.54-17.39,22.1c-7.23,6.53-15.61,12.74-25.13,18.65c-17.84,10.89-37.13,19.27-57.86,25.13
				c3.8,3.43,11.97,12.21,24.5,26.33c12.53,14.08,23.88,25.83,34.07,35.27c10.22,9.4,17.98,13.92,23.3,13.59l4.79-2.18
				c1.13-0.04,1.71,0.35,1.76,1.2c0.04,0.84-1.65,3.41-5.07,7.67c-3.38,4.28-6.37,7.53-8.94,9.78c-2.59,2.25-6.19,3.52-10.84,3.8
				c-4.61,0.28-10-1.64-16.19-5.77c-6.16-4.12-12.95-10.03-20.41-17.74c-7.43-7.74-14.15-15.06-20.2-21.96
				c-6.02-6.93-12.92-15.08-20.69-24.43c-7.74-9.38-13.06-15.73-15.91-19.08c-0.95,1.65-3.27,5.77-6.97,12.39
				c-3.71,6.58-6.44,11.4-8.17,14.5c-1.69,3.06-4.15,7.57-7.39,13.51c-3.2,5.97-5.7,10.77-7.53,14.43
				c-4.93,9.54-8.34,16.66-10.21,21.4c-1.83,4.7-5.19,7.21-10.07,7.53l-5.28,0.14l-4.5,0.42c-6.16,0.39-9.4-2.04-9.71-7.25
				c-0.25-3.89,1.09-9.52,4.01-16.89c2.9-7.41,18.97-35.42,48.22-84.05c29.28-48.66,45.47-74.65,48.57-77.99
				c3.1-3.33,5.42-5.24,6.97-5.77c1.16-0.99,1.92-1.48,2.25-1.48l2.75,0.21l2.53-0.56c0.88-0.04,1.71,0.28,2.46,0.99
				c0.74,0.7,1.27,1.16,1.55,1.34c4.4,2.82,6.69,5.28,6.83,7.39c0.14,2.08-0.26,4.12-1.2,6.12c-0.95,1.97-3.55,6.51-7.81,13.59
				c-4.28,7.09-9.91,16.26-16.89,27.52c-7,11.26-12.04,19.46-15.13,24.57c8.2-0.88,17.9-3.98,29.07-9.29
				c11.16-5.3,21.54-11.44,31.11-18.44c9.61-7.04,17.77-14.52,24.5-22.45c6.7-7.97,9.89-14.73,9.57-20.27
				c-0.19-2.99-1.9-5.63-5.14-7.88c-3.24-2.29-7.25-3.98-12.04-5.07c-9.57-2.25-20.25-3.03-32.03-2.32
				c-11.74,0.7-26.47,4.15-44.2,10.35c-17.7,6.19-30.55,11.88-38.57,17.03c-8.02,5.12-13.78,9.41-17.25,12.88
				c-3.43,3.43-5.12,5.81-5.07,7.11c0.04,0.7,1.07,1.02,3.1,0.92c2.06-0.14,3.84-0.77,5.35-1.9
				C-15.43,138.73-14.5,138.11-14.16,138.06z"/>
		</g>
	</g>
</g>
<g>
	<g transform="translate(712.183487, 188.417469)">
		<g>
			<path class="st2" d="M179.36,168.21c0.37,6.58-1.97,12.51-7.04,17.81c-5.03,5.31-10.91,8.17-17.67,8.59
				c-2.22,0.14-3.7-0.3-4.43-1.34c-0.76-1.02-1.18-2.36-1.27-4.01c-0.11-1.69,0-3.33,0.28-4.93c-3.52,1.41-7.43,3.5-11.68,6.26
				c-4.22,2.73-9.4,6.72-15.49,11.97c-6.05,5.26-9.01,9.08-8.87,11.47c0.09,0.81,1.3,1.13,3.66,0.99c2.34-0.14,5.88-1.16,10.63-3.1
				c4.79-1.92,8.13-2.92,10.07-3.03c1.97-0.14,3.26-0.14,3.87,0c1.3,0.62,2.78,2.04,4.43,4.29c1.64,2.25,2.5,4.07,2.6,5.42
				c0.09,1.37-1.11,3.22-3.59,5.56c-2.45,2.31-5.28,4.14-8.52,5.49c-3.2,1.37-5.35,2.38-6.48,3.03
				c-20.27,13.06-30.3,21.79-30.06,26.19c0.46,7.74,7.34,11.23,20.62,10.42c8.45-0.51,16.79-3.7,25.06-9.57
				c6.99-5.02,13.25-10.07,18.79-15.13c5.53-5.1,9.03-8.25,10.49-9.43c1.5-1.21,2.64-1.85,3.45-1.9c2.62-0.18,4.1,2.64,4.43,8.45
				c0.37,5.77,0.25,9.61-0.35,11.47c-0.56,1.88-2.39,4.28-5.49,7.18c-20.33,18.64-39.98,28.51-58.99,29.63
				c-10.19,0.65-18.42-0.25-24.71-2.67c-11.4-4.4-17.44-11.83-18.09-22.24c-0.81-13.8,8.06-24.81,26.61-33.08
				c-3.85-1.44-6.41-3.45-7.67-5.98c-1.27-2.57-2.09-6.78-2.46-12.6c-0.33-5.86,2.01-12.21,7.04-19.08
				c5.07-6.85,11.42-12.6,19.08-17.25c16.93-10.56,32.27-16.26,46.04-17.1c3.27-0.18,6.65,0.42,10.14,1.83
				C177.32,163.17,179.17,165.3,179.36,168.21z"/>
		</g>
	</g>
</g>
<g>
	<g transform="translate(733.74865, 187.107453)">
		<g>
			<path class="st2" d="M250.02,82.88l6.19,1.13c0.88-0.04,1.71,0.35,2.46,1.2c0.74,0.84,1.14,1.67,1.2,2.46
				c0.09,0.81-0.83,3.01-2.75,6.62c-1.88,3.63-4.12,7.74-6.69,12.39c-2.59,4.61-3.94,7.09-4.08,7.46c7.74-1.07,13.23-1.71,16.47-1.9
				c3.24-0.18,5.46-0.07,6.69,0.35c1.21,0.39,2.64,1.55,4.29,3.52c1.64,1.94,3.13,3.38,4.5,4.36c1.36,0.95,2.08,2.46,2.18,4.58
				c0.14,2.08-1.02,3.92-3.45,5.56c-2.39,1.6-5.03,2.6-7.88,3.03c-23,3.71-35.67,5.68-38.01,5.91
				c-7.37,12.86-17.53,32.8-30.48,59.83c-12.92,27.03-19.6,43.89-20.06,50.54c-0.19,3.01-0.25,5.46-0.14,7.32
				c0.23,3.85,2.39,5.67,6.48,5.42c4.08-0.23,8.52-2.06,13.3-5.49c4.79-3.41,9.15-7.11,13.09-11.05
				c10.56-10.65,16.22-16,17.03-16.05c2.62-0.18,4.22,4.21,4.79,13.16c0.28,4.93-1.72,9.49-5.98,13.66
				c-9.54,9.26-17.6,16.3-24.21,21.12c-6.62,4.79-13.36,7.39-20.2,7.81c-1.51,0.09-2.94,0.02-4.29-0.21
				c-7.99-0.99-13.99-3.54-18.02-7.67c-4.05-4.12-6.26-9.87-6.69-17.25c-0.39-7.36,1.28-16.42,5-27.17
				c3.7-10.79,8.48-22.31,14.36-34.56c9.61-19.99,19.29-38.78,29-56.38l-5.7,1.13c-11.46,1.97-18.14,3.01-20.06,3.1l-1.34,0.07
				c-2.87,0.19-5.68-0.18-8.45-1.13c-2.78-0.99-4.21-2.32-4.29-4.01c-0.11-1.72,0.51-3.45,1.83-5.14c1.36-1.69,2.15-2.97,2.39-3.87
				c0.6-2.25,3.1-4.86,7.46-7.81c4.36-2.99,7.67-4.65,9.92-4.93c2.29-0.28,4.52-0.51,6.69-0.7c2.15-0.23,4.52-0.49,7.11-0.77
				c2.62-0.28,4.65-0.51,6.05-0.7l13.44-1.41c7.6-12.99,12.85-21.36,15.77-25.13c2.9-3.8,4.59-5.88,5.07-6.26
				c0.51-0.42,1.51-0.67,3.03-0.77L250.02,82.88z"/>
		</g>
	</g>
</g>
<g>
	<g transform="translate(748.346611, 186.220672)">
		<g>
			<path class="st2" d="M253.95,194.15c21.91-28.19,41.13-42.8,57.65-43.78c4.08-0.23,7.5,0.81,10.28,3.1
				c2.82,2.31,4.33,5.4,4.58,9.29c0.28,3.91-2.09,10.56-7.11,19.99c-4.98,9.43-9.63,17.44-13.94,24c-2.36,3.34-5.1,5.12-8.24,5.35
				c-3.15,0.19-5.67-0.81-7.53-3.03c-1.83-2.2-2.85-4.86-3.03-7.95c-0.39-6.9,2.82-14.87,9.57-23.93l-0.28-0.28
				c-3.29,0.48-11.05,7.44-23.3,20.91c-12.21,13.48-22.58,25.48-31.11,36.04c-8.5,10.52-17.6,23.28-27.31,38.29
				c-2.87,4.47-5.38,6.76-7.53,6.9c-2.16,0.14-5.05-0.35-8.66-1.48s-5.81-1.97-6.62-2.53c-0.79-0.56-1.21-1.51-1.27-2.89
				c-0.09-1.41,0.21-3.04,0.92-4.93c0.67-1.92,1.97-4.65,3.94-8.17c1.94-3.52,4.82-9.19,8.66-17.03
				c3.89-7.83,9.94-19.71,18.16-35.62c8.25-15.91,13.2-25.48,14.85-28.72c3.38-6.85,6.16-11.84,8.38-14.99
				c4.08-5.95,11.47-9.26,22.17-9.92c2.39-0.14,3.68,1.3,3.87,4.29c0.28,4.7-3.52,13.78-11.4,27.24L253.95,194.15z"/>
		</g>
	</g>
</g>
<g>
	<g transform="translate(772.068299, 184.779654)">
		<g>
			<path class="st2" d="M387.71,153.48c2.99-0.18,6.14,0.97,9.43,3.45c3.33,2.5,5.16,6.51,5.49,12.04
				c0.32,5.49-1.2,12.79-4.58,21.89c-3.34,9.06-8.13,18.35-14.36,27.87c-6.19,9.54-13.13,18.55-20.77,27.03
				c-7.65,8.5-16.03,15.61-25.13,21.33c-9.12,5.68-17.49,8.75-25.13,9.22c-7.65,0.46-13.94-1.58-18.86-6.12s-7.65-11.12-8.17-19.71
				c-0.53-8.62,1.02-18.3,4.65-29c3.61-10.73,8.48-20.31,14.64-28.72c6.19-8.45,12.99-16.07,20.41-22.88
				c15.38-14.08,29.23-21.49,41.53-22.24c5.44-0.32,9.64,0.76,12.6,3.24c1.02,0.84,1.57,1.62,1.62,2.32l0.07,0.92
				C382.57,153.84,384.75,153.62,387.71,153.48z M373.84,174.18l-0.99,0.07c-3.52,0.25-5.46-2.18-5.77-7.25
				c-7.14,2.82-14.5,7.46-22.1,13.94c-7.57,6.48-14.27,13.99-20.13,22.52c-11.74,17.14-17.37,31.32-16.89,42.59
				c0.32,5.6,2.53,8.27,6.62,8.02c4.08-0.28,10-3.34,17.74-9.22c7.74-5.86,15.27-14.01,22.6-24.43
				c7.36-10.45,12.78-19.46,16.26-27.03c3.47-7.55,5.1-12.63,4.93-15.27C375.95,175.45,375.19,174.14,373.84,174.18z"/>
		</g>
	</g>
</g>
<g>
	<g transform="translate(796.951191, 183.268096)">
		<g>
			<path class="st2" d="M526.66,33.24l11.54,0.77c2.48-0.14,3.77,0.6,3.87,2.18c0,0.33-0.14,0.99-0.42,1.97
				c-28.21,47.21-59.34,102.66-93.41,166.33c-1.94,3.63-3.85,5.81-5.77,6.55c-0.14,0-0.26,0.05-0.35,0.14
				c-0.11,0.11-0.26,0.25-0.49,0.42c-0.19,0.14-0.49,0.26-0.92,0.35c-1.46,0.7-3.2,1.13-5.21,1.27c-1.97,0.11-3.36,0.48-4.15,1.13
				c-0.76,0.67-2.29,1.06-4.58,1.2c-3.66,0.25-5.61-1.55-5.84-5.35c-0.39-6.65,7.13-24.23,22.52-52.72
				c15.43-28.47,30.65-54.99,45.68-79.54c15.01-24.58,24.71-38.82,29.07-42.73C519.48,34.19,522.29,33.52,526.66,33.24z
				 M393.48,267.78c-0.39-6.34,1.92-12.21,6.9-17.67c5.02-5.44,10.44-8.32,16.26-8.66c5.86-0.37,8.96,2.32,9.29,8.09
				c0.37,5.77-1.95,11.67-6.97,17.67c-5.03,6-10.45,9.17-16.26,9.5C396.93,277.09,393.85,274.11,393.48,267.78z"/>
		</g>
	</g>
</g>
</svg>
